<svg width="220" height="220" viewBox="0 0 220 220" fill="none" xmlns="http://www.w3.org/2000/svg">
  <defs>
    <linearGradient id="orbGrad" x1="64" y1="30" x2="168" y2="196" gradientUnits="userSpaceOnUse">
      <stop offset="0" stop-color="#6E86FF"/>
      <stop offset="1" stop-color="#B12FFF"/>
    </linearGradient>
  </defs>
  <circle cx="110" cy="110" r="84" fill="url(#orbGrad)"/>
  <circle cx="110" cy="110" r="40" stroke="#EADFFF" stroke-opacity="0.68" stroke-width="5.4"/>
  <g stroke="#EADFFF" stroke-opacity="0.86" stroke-width="4.8" stroke-linecap="round">
    <line x1="86" y1="88" x2="86" y2="132"/>
    <line x1="98" y1="82" x2="98" y2="138"/>
    <line x1="122" y1="82" x2="122" y2="138"/>
    <line x1="134" y1="88" x2="134" y2="132"/>
    <path d="M74 104C83 98 91 94 98 94C105 94 113 99 121 107C129 115 137 120 146 120"/>
    <path d="M74 116C83 122 91 126 98 126C105 126 113 121 121 113C129 105 137 100 146 100"/>
  </g>
</svg>
