<svg width="1080" height="310" viewBox="0 0 1080 310" fill="none" xmlns="http://www.w3.org/2000/svg" shape-rendering="geometricPrecision" text-rendering="geometricPrecision">
  <defs>
    <linearGradient id="orbGrad" x1="112" y1="74" x2="232" y2="236" gradientUnits="userSpaceOnUse">
      <stop offset="0" stop-color="#6E86FF"/>
      <stop offset="1" stop-color="#B12FFF"/>
    </linearGradient>
    <linearGradient id="leftWave" x1="228" y1="146" x2="682" y2="146" gradientUnits="userSpaceOnUse">
      <stop offset="0" stop-color="#2ED7FF"/>
      <stop offset="1" stop-color="#1AB4FF"/>
    </linearGradient>
    <linearGradient id="rightWave" x1="692" y1="146" x2="1022" y2="146" gradientUnits="userSpaceOnUse">
      <stop offset="0" stop-color="#B64CFF"/>
      <stop offset="1" stop-color="#EB35FF"/>
    </linearGradient>
    <linearGradient id="titleFill" x1="300" y1="95" x2="610" y2="190" gradientUnits="userSpaceOnUse">
      <stop offset="0" stop-color="#F7FAFF"/>
      <stop offset="1" stop-color="#D9E3F4"/>
    </linearGradient>
    <filter id="waveGlow" x="218" y="30" width="832" height="236" filterUnits="userSpaceOnUse" color-interpolation-filters="sRGB">
      <feGaussianBlur stdDeviation="5.2" result="blur"/>
      <feMerge>
        <feMergeNode in="blur"/>
        <feMergeNode in="SourceGraphic"/>
      </feMerge>
    </filter>
  </defs>

  <rect width="1080" height="310" fill="#020716"/>
  <rect x="28" y="28" width="1024" height="252" rx="4" fill="#040B22"/>

  <g opacity="0.14">
    <path d="M28 64H1052" stroke="#54617D"/>
    <path d="M28 112H1052" stroke="#54617D"/>
    <path d="M28 160H1052" stroke="#54617D"/>
    <path d="M28 208H1052" stroke="#54617D"/>
  </g>

  <line x1="250" y1="146" x2="1008" y2="146" stroke="#172C54" stroke-width="2"/>

  <g filter="url(#waveGlow)">
    <path d="M228 146H236" stroke="url(#leftWave)" stroke-width="4.6" stroke-linecap="round"/>
    <path d="M236 146C240 146 240 138 244 138C248 138 248 154 252 154C256 154 256 146 260 146" stroke="url(#leftWave)" stroke-width="4.6" stroke-linecap="round" stroke-linejoin="round"/>
    <path d="M260 146C266 146 266 110 272 110C278 110 278 182 284 182C290 182 290 146 296 146" stroke="url(#leftWave)" stroke-width="4.6" stroke-linecap="round" stroke-linejoin="round"/>
    <path d="M296 146C304 146 304 42 312 42C320 42 320 250 328 250C336 250 336 146 344 146" stroke="url(#leftWave)" stroke-width="4.6" stroke-linecap="round" stroke-linejoin="round"/>
    <path d="M344 146C350 146 350 126 356 126C362 126 362 166 368 166C374 166 374 146 380 146" stroke="url(#leftWave)" stroke-width="4.6" stroke-linecap="round" stroke-linejoin="round"/>
    <path d="M380 146C389 146 389 102 398 102C407 102 407 190 416 190C425 190 425 146 434 146" stroke="url(#leftWave)" stroke-width="4.6" stroke-linecap="round" stroke-linejoin="round"/>
    <path d="M434 146C444 146 444 82 454 82C464 82 464 210 474 210C484 210 484 146 494 146" stroke="url(#leftWave)" stroke-width="4.6" stroke-linecap="round" stroke-linejoin="round"/>
    <path d="M494 146C504 146 504 54 514 54C524 54 524 238 534 238C544 238 544 146 554 146" stroke="url(#leftWave)" stroke-width="4.6" stroke-linecap="round" stroke-linejoin="round"/>
    <path d="M554 146C560 146 560 118 566 118C572 118 572 174 578 174C584 174 584 146 590 146" stroke="url(#leftWave)" stroke-width="4.6" stroke-linecap="round" stroke-linejoin="round"/>
    <path d="M590 146C598 146 598 84 606 84C614 84 614 208 622 208C630 208 630 146 638 146" stroke="url(#leftWave)" stroke-width="4.6" stroke-linecap="round" stroke-linejoin="round"/>
    <path d="M638 146C644 146 644 106 650 106C656 106 656 186 662 186C668 186 668 146 674 146" stroke="url(#leftWave)" stroke-width="4.6" stroke-linecap="round" stroke-linejoin="round"/>

    <path d="M692 146H708" stroke="url(#rightWave)" stroke-width="4.8" stroke-linecap="round"/>
    <g stroke="url(#rightWave)" stroke-width="4.8" stroke-linecap="round">
      <line x1="714" y1="160" x2="714" y2="132" opacity="0.38"/>
      <line x1="722" y1="170" x2="722" y2="122" opacity="0.52"/>
      <line x1="730" y1="180" x2="730" y2="112" opacity="0.66"/>
      <line x1="738" y1="194" x2="738" y2="98" opacity="0.82"/>
      <line x1="746" y1="210" x2="746" y2="82"/>
      <line x1="754" y1="194" x2="754" y2="98" opacity="0.82"/>
      <line x1="762" y1="180" x2="762" y2="112" opacity="0.66"/>
      <line x1="770" y1="170" x2="770" y2="122" opacity="0.52"/>
      <line x1="778" y1="160" x2="778" y2="132" opacity="0.38"/>
    </g>

    <path d="M786 146H818" stroke="url(#rightWave)" stroke-width="4.8" stroke-linecap="round"/>

    <g stroke="url(#rightWave)" stroke-width="4.8" stroke-linecap="round">
      <line x1="824" y1="158" x2="824" y2="134" opacity="0.34"/>
      <line x1="832" y1="168" x2="832" y2="124" opacity="0.48"/>
      <line x1="840" y1="178" x2="840" y2="114" opacity="0.62"/>
      <line x1="848" y1="192" x2="848" y2="100" opacity="0.78"/>
      <line x1="856" y1="206" x2="856" y2="86" opacity="0.94"/>
      <line x1="864" y1="222" x2="864" y2="70"/>
      <line x1="872" y1="206" x2="872" y2="86" opacity="0.94"/>
      <line x1="880" y1="192" x2="880" y2="100" opacity="0.78"/>
      <line x1="888" y1="178" x2="888" y2="114" opacity="0.62"/>
      <line x1="896" y1="168" x2="896" y2="124" opacity="0.48"/>
      <line x1="904" y1="158" x2="904" y2="134" opacity="0.34"/>
    </g>

    <path d="M912 146H936" stroke="url(#rightWave)" stroke-width="4.8" stroke-linecap="round"/>

    <g stroke="url(#rightWave)" stroke-width="4.8" stroke-linecap="round">
      <line x1="942" y1="162" x2="942" y2="130" opacity="0.4"/>
      <line x1="950" y1="172" x2="950" y2="120" opacity="0.56"/>
      <line x1="958" y1="186" x2="958" y2="106" opacity="0.72"/>
      <line x1="966" y1="202" x2="966" y2="90" opacity="0.9"/>
      <line x1="974" y1="214" x2="974" y2="78"/>
      <line x1="982" y1="202" x2="982" y2="90" opacity="0.9"/>
      <line x1="990" y1="186" x2="990" y2="106" opacity="0.72"/>
      <line x1="998" y1="172" x2="998" y2="120" opacity="0.56"/>
      <line x1="1006" y1="162" x2="1006" y2="130" opacity="0.4"/>
    </g>
    <path d="M1012 146H1022" stroke="url(#rightWave)" stroke-width="4.8" stroke-linecap="round"/>
  </g>

  <g>
    <circle cx="172" cy="146" r="78" fill="url(#orbGrad)"/>
    <circle cx="172" cy="146" r="37" stroke="#EADFFF" stroke-opacity="0.66" stroke-width="5"/>
    <g stroke="#EADFFF" stroke-opacity="0.86" stroke-width="4.4" stroke-linecap="round">
      <line x1="148" y1="124" x2="148" y2="168"/>
      <line x1="160" y1="118" x2="160" y2="174"/>
      <line x1="184" y1="118" x2="184" y2="174"/>
      <line x1="196" y1="124" x2="196" y2="168"/>
      <path d="M136 140C145 134 153 130 160 130C167 130 175 135 183 143C191 151 199 156 208 156"/>
      <path d="M136 152C145 158 153 162 160 162C167 162 175 157 183 149C191 141 199 136 208 136"/>
    </g>
  </g>

  <text x="258" y="154" fill="url(#titleFill)" font-family="Montserrat, Poppins, Segoe UI, Arial, sans-serif" font-size="81" font-weight="800" letter-spacing="2">ECHONA</text>
  <text x="262" y="215" fill="#C2CADB" font-family="Montserrat, Poppins, Segoe UI, Arial, sans-serif" font-size="65" font-weight="600" letter-spacing="2">MENTAL WELLNESS</text>
</svg>
